<svg width="523" height="477" viewBox="0 0 523 477" fill="none" xmlns="http://www.w3.org/2000/svg">
<path d="M521.967 473.48C516.967 466.2 512.387 458.62 506.967 451.66C490.627 430.66 475.717 408.56 460.327 386.85C442.047 361.08 423.867 335.22 405.417 309.57C389.967 288 375.137 265.85 359.027 244.64C348.077 230.23 338.087 215.1 327.557 200.37C325.867 198 326.037 196.37 327.997 194.32C336.307 185.48 344.847 176.89 352.877 167.75C364.257 154.8 376.497 142.55 388.277 129.91C400.427 116.91 412.737 104.02 424.907 91.02C440.377 74.49 455.757 57.89 471.207 41.35C483.797 27.88 496.437 14.46 509.787 0.23C488.967 0.23 469.277 0.34 449.647 0.14C447.585 0.0598506 445.532 0.4567 443.648 1.29965C441.764 2.14261 440.101 3.40892 438.787 5C428.537 16.15 418.067 27.1 407.737 38.18C380.607 67.27 353.637 96.52 326.327 125.44C317.987 134.28 309.597 143.06 301.657 152.27C298.227 156.27 296.657 156.18 293.577 152.05C287.507 143.95 281.437 135.83 275.577 127.58C263.117 110.06 251.147 92.22 238.317 75C222.087 53.28 206.697 31 191.187 8.72C187.207 3 183.067 0 175.407 0C118.587 0.4 61.7566 0.22 4.9666 0.25C3.3566 0.25 1.2066 -0.43 0.3066 1.15C-0.7834 3.07 1.3066 4.5 2.3066 5.9C16.4199 26.0133 30.6033 46.0867 44.8566 66.12C58.3966 85 72.1766 103.78 85.7466 122.68C101.077 144.04 116.257 165.51 131.547 186.89C150.307 213.13 169.11 239.347 187.957 265.54C190.177 268.63 190.267 271.19 187.717 274.01C181.587 280.79 175.227 287.36 169.037 294.09C147.627 317.36 125.657 340.09 104.037 363.21C80.7366 388.13 57.5499 413.157 34.4766 438.29C24.5966 449.11 13.4766 458.78 4.3166 470.29C3.0566 471.86 0.2566 473.29 1.3166 475.49C2.2066 477.28 4.9866 476.35 6.9266 476.35C22.7566 476.35 38.5866 476.11 54.4166 476.48C61.0466 476.63 65.7366 475.02 70.2666 469.63C78.2666 460.09 88.2666 452.17 96.0166 442.48C110.337 424.64 128.017 409.96 142.347 392.19C149.117 383.81 157.737 376.96 164.897 368.87C181.327 350.27 199.477 333.28 215.417 314.25C218.557 310.51 220.657 311.25 223.067 314.66C227.777 321.3 232.527 327.9 237.257 334.52C254.097 358.08 270.937 381.64 287.777 405.2C303.097 426.57 318.777 447.69 333.627 469.38C337.417 474.92 341.337 476.51 347.517 476.49C403.85 476.323 460.183 476.28 516.517 476.36C517.857 476.36 519.187 476.36 520.517 476.29C522.587 476.17 523.347 475.44 521.967 473.48ZM425.547 429.36C406.717 429.43 387.887 429.26 369.057 429.47C362.327 429.54 360.057 424.23 357.057 420.18C347.987 407.88 339.507 395.18 330.177 383.03C320.847 370.88 312.497 357.67 303.587 345.03C296.967 335.55 289.967 326.22 283.207 316.8C275.907 306.7 268.977 296.29 261.207 286.53C250.657 273.23 241.717 258.81 231.567 245.24C222.317 232.86 214.227 219.61 204.777 207.41C197.147 197.57 190.247 187.22 182.527 177.41C175.667 168.72 169.687 159.34 163.257 150.31C153.617 136.79 143.95 123.29 134.257 109.81C121.03 91.33 107.813 72.8233 94.6066 54.29C93.5066 52.74 91.6066 51.11 92.6766 48.95C93.8766 46.53 96.4566 47.27 98.5266 47.26C107.857 47.19 117.197 47.26 126.527 47.26C135.857 47.26 145.187 47.36 154.527 47.21C156.187 47.122 157.84 47.4811 159.314 48.2497C160.788 49.0184 162.029 50.1685 162.907 51.58C181.493 77.72 200.127 103.83 218.807 129.91C231.497 147.62 244.347 165.21 257.037 182.91C270.197 201.29 282.867 220.04 296.487 238.07C304.197 248.28 311.007 259.07 318.797 269.24C329.107 282.68 338.327 296.94 348.207 310.72C362.347 330.44 376.747 349.97 390.877 369.72C403.67 387.567 416.337 405.507 428.877 423.54C432.197 428.39 431.547 429.34 425.577 429.36H425.547Z" fill="#3B3B44"/>
</svg>
